<?xml version="1.0" encoding="UTF-8" standalone="no"?>
<!-- Created with Inkscape (http://www.inkscape.org/) -->

<svg
   width="42.139606mm"
   height="53.059811mm"
   viewBox="0 0 42.139606 53.059811"
   version="1.1"
   id="svg1"
   xml:space="preserve"
   xmlns:inkscape="http://www.inkscape.org/namespaces/inkscape"
   xmlns:sodipodi="http://sodipodi.sourceforge.net/DTD/sodipodi-0.dtd"
   xmlns="http://www.w3.org/2000/svg"
   xmlns:svg="http://www.w3.org/2000/svg"><sodipodi:namedview
     id="namedview1"
     pagecolor="#ffffff"
     bordercolor="#000000"
     borderopacity="0.25"
     inkscape:showpageshadow="2"
     inkscape:pageopacity="0.0"
     inkscape:pagecheckerboard="0"
     inkscape:deskcolor="#d1d1d1"
     inkscape:document-units="mm" /><defs
     id="defs1" /><g
     inkscape:label="طبقة 1"
     inkscape:groupmode="layer"
     id="layer1"
     transform="translate(-30.789853,-561.70988)"><g
       id="g42511"
       inkscape:export-filename="misbaha.svg"
       inkscape:export-xdpi="96"
       inkscape:export-ydpi="96"><path
         id="path42508"
         style="opacity:1;fill:#2ede93;fill-opacity:1;stroke:#5dbe88;stroke-width:2.865;stroke-dasharray:none;stroke-opacity:1"
         d="m 68.983618,596.86645 c -1.31243,10.69934 -4.767757,16.66604 -17.868559,16.466 -11.780634,-0.17989 -14.70036,-5.34082 -16.313486,-16.93301 -1.128257,-8.10787 -10.805012,-32.77647 16.536947,-33.24919 28.006275,-0.4842 19.130356,21.6078 17.645098,33.7162 z"
         sodipodi:nodetypes="sssss" /><rect
         style="opacity:1;fill:#ffffff;fill-opacity:1;stroke:none;stroke-width:3.16615;stroke-dasharray:none;stroke-opacity:1"
         id="rect42509"
         width="25.924925"
         height="10.997189"
         x="38.224079"
         y="572.74042"
         ry="2.282434" /><g
         id="g42510"
         transform="translate(-0.67311573,-0.75253378)"><circle
           style="opacity:1;fill:#ececec;fill-opacity:1;fill-rule:nonzero;stroke:none;stroke-width:4.46617;stroke-dasharray:none;stroke-opacity:1"
           id="circle42509"
           cx="51.859657"
           cy="598.70349"
           r="9.4011393" /><circle
           style="opacity:1;fill:#ffffff;fill-opacity:1;stroke:none;stroke-width:3.57069;stroke-dasharray:none;stroke-opacity:1"
           id="path42509"
           cx="51.859657"
           cy="598.70349"
           r="7.5161791" /></g><circle
         style="opacity:1;fill:#ffffff;fill-opacity:1;stroke:none;stroke-width:1.13379;stroke-dasharray:none;stroke-opacity:1"
         id="circle42510"
         cx="61.762421"
         cy="588.80072"
         r="2.3865824" /><path
         style="fill:#2ede93;fill-opacity:1;stroke:none;stroke-width:0.101305"
         d="m 62.294367,587.99327 h -1.031529 c -0.182199,0 -0.374011,-0.0172 -0.522764,0.10985 -0.236636,0.20204 -0.1727,0.54572 -0.1727,0.82366 0,0.0833 -0.03816,0.29582 0.09335,0.29582 0.121805,0 0.09335,-0.17067 0.09335,-0.24914 0,-0.21229 -0.07478,-0.57985 0.112054,-0.72861 0.118675,-0.0945 0.2924,-0.0649 0.434049,-0.0649 h 0.994189 c -0.03266,0.0327 -0.06546,0.0652 -0.09796,0.098 -0.05948,0.0601 -0.108354,0.2328 0.04195,0.20189 0.107575,-0.0221 0.232498,-0.20522 0.308024,-0.28124 0.0306,-0.0308 0.06808,-0.065 0.06774,-0.11202 -6.64e-4,-0.0836 -0.134733,-0.17438 -0.189057,-0.22871 -0.05007,-0.0501 -0.128872,-0.16776 -0.210032,-0.15506 -0.197203,0.0309 0.02889,0.23997 0.07934,0.29042 m -1.064202,1.42827 c 0.03266,-0.0327 0.0655,-0.0651 0.09792,-0.098 0.05929,-0.0602 0.108484,-0.23281 -0.04191,-0.20189 -0.107575,0.0221 -0.232498,0.20522 -0.308024,0.28124 -0.03059,0.0308 -0.06808,0.065 -0.06774,0.11202 5.86e-4,0.0836 0.134735,0.17439 0.189058,0.22871 0.05007,0.0501 0.12887,0.16776 0.210032,0.15506 0.19696,-0.0308 -0.02904,-0.24012 -0.07934,-0.29042 h 1.03153 c 0.185111,0 0.377607,0.0165 0.527429,-0.11426 0.232395,-0.20281 0.168035,-0.54755 0.168035,-0.82391 0,-0.0826 0.03722,-0.29171 -0.09335,-0.29171 -0.121695,0 -0.09335,0.17154 -0.09335,0.2497 0,0.21242 0.07466,0.57947 -0.112076,0.7286 -0.11845,0.0946 -0.29254,0.0649 -0.434027,0.0649 z"
         id="path42510" /></g></g></svg>
